<?xml version="1.0" encoding="UTF-8"?>
<svg id="_Слой_1" data-name="Слой_1" xmlns="http://www.w3.org/2000/svg" version="1.1" viewBox="0 0 1000 1000">
  <!-- Generator: Adobe Illustrator 29.5.1, SVG Export Plug-In . SVG Version: 2.1.0 Build 141)  -->
  <defs>
    <style>
      .st0 {
        fill: currentColor;
      }
    </style>
  </defs>
  <path class="st0" d="M128.5,350.4c63.5-61.2,131.8-127.2,204.9-197.8,8.8-2.2,17.6-4,26.4-5.4,11.7-11.4,23.5-22.8,35.4-34.4-32,9-64.1,22.4-96,40.5-6.3,6.1-12.6,12.2-18.8,18.2,8.5-4,17-7.5,25.6-10.7-59.2,57.2-113.4,109.5-162.5,156.6-5.6,10.9-10.6,22-15.2,32.9h0ZM98.2,501.5c111.5-108,225.9-218.8,343.2-332.5,48.9-47.3,60.8-72.3,34.4-70.2-8,.5-16.1,1.3-24.2,2.4-26.7,4.1-58.1,25.6-93,59.3-86,83.3-168.3,162.9-246.7,238.6-3,11-5.5,21.9-7.4,32.8,39.7-38.5,80.1-77.6,121.2-117.4,3.2,7.2,6.8,14.5,10.8,22-46.3,44.9-91.9,89.1-137,132.8-.9,10.8-1.3,21.5-1.3,32.2h0ZM381.9,163.5c13.6-13.2,24.5-20,32.8-19.8,2.6,0,5.2.1,7.8.3,8.2.4,4.7,8.2-10.6,23.1-43.5,42.1-86.6,83.7-129,124.8-5.6-5.9-10.9-11.6-16-17,37.8-36.5,76.2-73.6,115.1-111.3h0ZM609.4,94.8c17.9,4.8,35.2,10.8,52.1,17.8-5.2-14.2-10.7-28.4-16.7-42.5-8-18.9-16.8-37.6-26.7-56.1-19.7-4.8-39.8-8.3-60.3-10.7,15,21.8,28.2,44.3,39.8,67.2,4.1,8.1,8,16.2,11.7,24.3h0ZM126.3,645c3.8,9.5,8,18.9,12.5,28,65.9-64,132-128.2,198.4-192.7,7.2,8.6,14.6,17.2,22.2,25.7-68,66.1-135.9,132-203.6,197.8,5.3,8.7,10.9,17.3,16.8,25.5,155.9-151.1,312.4-303,469.5-455.3,64.9-63,88-102.5,67.1-115.5-6.5-4-13-7.9-19.7-11.5-21.8-11.5-64,13.8-124.7,72.8-147.7,143.2-293.9,285-438.5,425.2h0ZM628.6,215.8c2.3,1.5,4.6,3.1,6.9,4.6,7.3,4.9-.1,18.2-22,39.5-62.3,60.4-124.5,120.6-186.5,180.7-8-8.1-16-16.2-23.8-24.2,60.5-58.6,121.3-117.4,182.2-176.5,21.3-20.8,35.8-28.9,43.1-24.1h0ZM354.7,351.6c88.4-72.8,181.6-149.9,278.4-230.3-8.8-3.2-17.8-6.1-26.9-8.7-95,79.2-185.8,154.5-271.1,224.8-1.3,1.3-2.6,2.6-3.9,3.9-69.3,82.2-142.9,168.9-219.8,259.2,2.7,10,5.8,19.8,9.2,29.5,81.5-96.5,159.8-189.7,234-278.3h0ZM516.8,69.5c2.7,3.8,5.4,7.7,8,11.6,14.4.8,28.5,2.4,42.5,4.6-13.6-24.5-29-48.4-47.2-71.4-3.9-4.8-8-9.6-12.1-14.4-2.6,0-5.3,0-7.9,0-14.2,0-28.2.6-42.1,1.8,1.4,1.4,2.9,2.7,4.3,4.1,20.9,20.1,38.7,41.5,54.5,63.7h0ZM573.1,104.8c-10.2-2-20.5-3.5-30.9-4.6C390.8,247,243.1,390.1,99.3,529.5c.8,10.5,2,20.9,3.6,31.2,153.3-148.7,310.1-300.7,470.2-455.9ZM901.2,476.2c-141.8,137.4-287.6,278.7-437.1,423.7,10.5.9,21,1.5,31.7,1.6,139.5-135.3,274.9-266.5,405.9-393.4.3-10.7,0-21.3-.5-31.8h0ZM691.3,851.3c47.9-46.3,91.2-88,129.8-125,14.9-14.5,30.8-34.8,43.8-62,3.7-8.2,7.2-16.3,10.3-24.5,10.6-27.1-2.7-24.7-36.2,8-80,77.4-163.9,158.5-251.4,243.2,10.9-2.6,21.9-5.7,32.9-9.3,33.5-32.4,66.2-64.2,98.2-95.1,6.4,1.9,12.6,3.4,18.5,4.4-25.5,24.7-51.7,50.1-78.8,76.3,11-4.8,22-10.1,32.9-16ZM834.1,675.4c9.6-9.4,13.5-9.9,11.2-1.9-.7,2.5-1.4,5-2.2,7.5-2.6,8-7.7,15.5-15,22.6-21.1,20.4-43.1,41.5-65.7,63.3-3.7-3.2-7.7-6.8-12-10.7,28.6-27.6,56.6-54.6,83.8-80.8h0ZM711.7,120c2.1,7.1,4.1,14.2,6.2,21.3,104.9,63.8,179.5,172.2,197.6,298.9,6.3-15,12.6-30.1,18.9-45.2,10.5-25.1,21.2-50.1,32.4-75-14-36.2-32.1-70.4-53.7-102-.5.7-1,1.4-1.5,2-6,8.1-12.2,16-19.8,23.4-3.4,3.3-6.8,6.6-11.2,9.3-2.6,1.6-5.4,3.1-8.4,4.2-5.6,2.2-11.5,2.1-16.9-.5-2.5-1.2-4.8-2.7-6.9-4.3-5.2-4.1-8.7-8.9-12.1-13.8-6.7-9.8-11.5-20.2-15.9-30.5-7.9-18.3-14.4-36.9-20.7-55.5-7.4-21.9-14.6-43.9-21.8-65.8-.4-1-.7-2-1-3.1-29.7-19.8-61.7-36.4-95.4-49.6,4.3,10.7,8.5,21.4,12.3,32.2,6.5,17.9,12.6,35.8,17.9,53.9h0ZM899.2,543.5c-58,46.1-124.2,99.8-197.6,160l-3.3,3.3c-59.1,70.3-112.9,134.9-160.4,192.6,10.8-1.1,21.7-2.7,32.6-4.7,41.8-52,91.3-112.2,147.2-179.4,67-54.7,126.3-102.4,176.7-142,2-10,3.5-19.9,4.7-29.8h0ZM436.7,896.4c130.5-126.5,258.6-250.7,384.3-372.5,51.3-49.9,76-87.5,70.9-112.2-1.8-7.5-3.7-14.9-5.9-22.3-6.9-24-41.9-6.2-102,52.3-145.3,140.8-292.1,283.3-440.4,427,9.4,4.1,18.9,7.9,28.7,11.2,63.4-61.6,126.5-122.8,189.2-183.8,8.5,6.5,16.9,12.7,25.2,18.7-59.7,58-119.9,116.4-180.4,175.2,10,2.5,20.2,4.6,30.5,6.3h0ZM793.4,471.6c19.7-19.2,31.4-24.9,34.5-16.9,1,2.5,2,5,2.9,7.5,2.9,8-5.1,21.1-23.7,39.2-53.4,51.7-107.1,103.7-161.3,156.1-7.3-7-14.7-14.2-22.2-21.6,56.9-55.1,113.5-109.9,169.8-164.3ZM416.4,88.8c23.5-4.8,47.8-7.6,72.6-8.2-8.7-11.1-18.1-22-28.2-32.5-13.8-14.4-28.7-28.2-45.4-40.9-29.6,5-58.3,12.7-85.9,22.7,21.1,10,40.1,21.8,57.7,34.9,10.3,7.7,20,15.7,29.1,24.1h0ZM300.6,843.5c162.9-158,324.7-314.9,485.2-470.5,5.2,8.1,10,16.3,14.7,24.7,21.5-20.9,43-41.9,64.5-62.8-12.2-27.2-27.4-53-45.2-76.8-22.8,22.2-45.7,44.5-68.6,66.7,6.1,7.6,12,15.3,17.6,23.1-163.8,158.8-328.6,318.6-494.1,479.2,8.4,5.8,17,11.2,25.9,16.3ZM523.9,508.6c0-11.7-9.5-21.3-21.3-21.3s-21.3,9.5-21.3,21.3,9.5,21.3,21.3,21.3,21.3-9.5,21.3-21.3ZM606.7,960c-.9-7.3-2-14.6-3-21.9-.9-7.2-1.8-14.3-2.7-21.5-.4-3-.8-6-1.3-9-6.7,1.6-13.4,3.1-20.2,4.4,0,.5.1,1,.2,1.5,1,6.2,2,12.4,2.9,18.6,1,6.6,2,13.2,3,19.8.9,6.5,1.8,13,2.7,19.4,1,6.8,2,13.5,2.9,20.2,6.2-1.1,12.5-2.4,18.6-3.8-.2-1.5-.4-2.9-.6-4.3-.9-7.9-1.7-15.7-2.7-23.5h0ZM624.3,956.4c-1.6-14.8-3.2-29.5-4.9-44.3-.4-3.1-.8-6.3-1.2-9.4-3.3,1-6.7,1.9-10,2.8,1,7.2,2,14.4,3,21.6.9,6.9,1.7,13.8,2.5,20.7,1.1,9.3,2.1,18.7,3.2,28,.4,3.4.7,6.8,1.1,10.2,3.1-.7,6.2-1.5,9.3-2.3-.6-4.9-1.1-9.8-1.6-14.7-.5-4.2-.9-8.4-1.4-12.6h0ZM351.8,107.4c10.9-4.1,22.1-7.8,33.4-11-22.3-17.4-47.3-32.7-76-44.9-5.4-2.3-11-4.5-16.6-6.5-13.5,6.1-26.6,12.9-39.4,20.1,17.4,4.1,34,9.6,50.2,16.4,17.5,7.4,33.5,16.2,48.4,25.8h0ZM639.3,920.6c-.8-7.9-1.6-15.9-2.4-23.8-3.4,1.2-6.8,2.3-10.2,3.4.6,5.5,1.3,11,1.9,16.4,1.1,9.6,2.1,19.2,3.1,28.8.6,5.5,1.1,11.1,1.6,16.7.7,6.5,1.3,13,2,19.5,3.3-.9,6.5-1.9,9.7-2.8-.8-8.8-1.6-17.6-2.5-26.4-1-10.6-2.2-21.1-3.3-31.7h0ZM559.3,974.7c-1.3-7.4-2.8-14.8-4.2-22.2-1.6-8.7-3.2-17.5-4.9-26.2-.6-3.2-1.3-6.3-1.9-9.5-4.3.5-8.7.9-13,1.3,2.9,13.5,5.5,27,8.2,40.6,2.5,12.9,5,25.8,7.4,38.8,4-.4,8-.8,11.9-1.4-.1-.8-.2-1.6-.4-2.4-1-6.3-2.1-12.7-3.2-19h0ZM660.6,928.7c-1.2-13.2-2.5-26.3-3.7-39.4-3.6,1.4-7.2,2.8-10.8,4.2.6,6.3,1.3,12.6,1.9,18.9.9,9.1,1.7,18.1,2.5,27.2,1,11.1,2.1,22.2,3.1,33.3.1,1,.2,2,.2,3,3.5-1.2,7-2.3,10.6-3.6-.1-1.7-.3-3.4-.4-5.1-1.1-12.9-2.1-25.7-3.3-38.6ZM523.3,924.2c-.4-1.7-.8-3.4-1.2-5.2-5.8.3-11.7.5-17.6.6,2.8,10.2,5.4,20.3,7.9,30.5,3.9,15.8,7.5,31.6,11.3,47.4.2.6.4,1.3.5,1.9,5.1-.2,10.2-.6,15.2-1-2.1-10.4-4.2-20.8-6.5-31.3-3.1-14.3-6.3-28.7-9.6-43h0ZM989.5,397.2c-1.9,4.5-3.7,8.9-5.5,13.4-15,36.8-28.7,73.8-41.3,111-10.3,30.2-20.2,60.5-30,90.8-8.3,25.7-16.2,51.4-24.4,77.1-10.7,33.8-21.1,67.6-33.4,101.1-4.8,13-9.8,26-16.3,38.6-2.4,4.6-5.2,9-8.2,13.4-1.7,2.4-4,4.6-6.6,6.6-3.5,2.7-7.7,2.7-10.9-.1-2.1-1.9-3.9-4-5.3-6.3-3.2-4.9-5.2-10.2-7-15.5-3.1-8.9-5.5-18-7.5-27-13.3,13-27.5,25.1-42.4,36.2.1,1.1.2,2.1.3,3.2,1,10.7,2.1,21.4,3.1,32.1.7,7.7,1.3,15.4,1.9,23.2.9,11,1.9,22,2.9,33,58.2-35.2,108.5-82,148-137.2,4.5-17.6,9-35.1,13.8-52.7,6.1-22.5,12.4-45,19-67.5,7.5-25.5,15.3-51,23.4-76.4,7.2-22.2,14.9-44.4,22.7-66.5,4.5-12.7,9.3-25.4,14.1-38-.6-31.6-4.2-62.6-10.5-92.5h0ZM729.3,868.1c-.4-5.3-.8-10.6-1.2-15.9-6.3,4.1-12.8,8.1-19.4,11.9.1,1.2.2,2.4.3,3.6,1.1,13.8,2,27.6,3,41.5,1,14.2,2,28.3,2.9,42.5,6.7-3.2,13.3-6.5,19.7-10-.6-8.5-1.3-17.1-1.9-25.6-1.2-16-2.3-32-3.5-48h0ZM698.9,933.9c-.9-12.9-2-25.7-3-38.6-.6-7.3-1-14.6-1.6-22,0-.4,0-.8-.1-1.3-8.8,4.6-17.7,8.9-26.8,12.8,0,.8.2,1.5.2,2.3.5,4.9.8,9.8,1.2,14.7.6,7.2,1.2,14.3,1.8,21.5,1,11.8,2,23.6,2.9,35.3.2,3.4.5,6.8.7,10.1,8.9-3.3,17.6-6.8,26.3-10.6,0-.2,0-.5,0-.7-.5-7.9-.9-15.7-1.5-23.6h0ZM570.1,913.8c-3.7.6-7.4,1.2-11.2,1.8,1.3,7,2.6,14,3.9,20.9,1.7,9.7,3.3,19.4,4.8,29.1,1.6,9.8,3.1,19.5,4.7,29.3,3.4-.5,6.9-1,10.3-1.6-1.7-11.2-3.2-22.3-4.9-33.5-2.5-15.3-5-30.7-7.6-46h0ZM107.2,284c12.7-4.7,25.9-8.3,39.7-10.8,16.2-25.2,35-48.5,56.1-69.6-11.7-.9-23.5-1-35.4-.1-27.4,1.9-52.8,8.1-76.6,17.6-2.8,1.1-5.6,2.3-8.4,3.5-21,31.8-38.5,66.2-51.9,102.5,7-5.5,14.4-10.7,22.2-15.7,16.5-10.7,34.4-20,54.3-27.3ZM47.2,396.7c14.6-11.4,30.4-21.9,48.3-30.8,2.7-1.3,5.4-2.6,8.1-3.9,5.9-17,12.9-33.6,20.9-49.6-16.3,5-31.4,11.6-45.6,19.3-22.9,12.4-42.5,27-60.2,43.1-1.3,1.2-2.6,2.4-3.9,3.6-4.8,19.1-8.5,38.6-10.9,58.5,13-14.2,27.3-27.7,43.3-40.3h0ZM197.4,174.5c11.3.6,22.3,1.9,33,4,9.9-8.3,20.3-16.2,30.9-23.6-16.6-5.1-33.8-8.7-51.8-10.5-15.3-1.5-30.6-1.5-46-.4-5.5.4-11,1-16.4,1.8-12.3,12.3-24.1,25.2-35.1,38.8,7.3-2.1,14.8-4,22.6-5.5,20.6-4.1,41.5-5.6,62.7-4.5h0ZM495.5,953.5c-3.3-11.4-6.7-22.8-10.2-34.2-25-.8-49.4-3.9-73.1-8.9,12.2,20.9,22.6,42.2,32,63.8,3.4,7.9,6.6,15.8,9.8,23.8,15.2,1.4,30.5,2.1,46.1,2.1s5.4,0,8.1,0c-.6-1.9-1.1-3.8-1.6-5.6-3.7-13.6-7.2-27.2-11.1-40.8h0ZM290,136.7c10.4-6,21.1-11.6,32.1-16.8-4.7-2.5-9.4-4.9-14.3-7.2-24.5-11.5-50.9-20-79.7-24.4-3.3-.5-6.5-.9-9.8-1.3-13,8.9-25.6,18.4-37.7,28.5,7.9,0,15.8.2,23.7.7,31.1,2.2,59.4,9.5,85.8,20.5h0ZM339.4,919.3c-7-4.5-14.6-8.4-23.1-11.4-17.3-6.2-35.1-7.5-53.6-3.1-10.1,2.5-19.1,6.3-27.4,11-2.3,1.3-4.6,2.7-6.8,4.1,53.2,34.4,113.3,59.1,177.8,71.3-9.7-15.2-20.5-30-33.6-43.9-9.6-10.2-20.3-19.8-33.2-28ZM111.3,658.3c-6.8,6-13.2,12.3-19.3,18.8-14.5,15.5-27.1,31.7-38.4,48.4,24.8,48.9,57.4,93.2,96.1,131.3,4.7-5.5,9.6-11,14.9-16.3,8.8-8.9,18.6-17.3,29.7-24.9,5.6-3.8,11.5-7.3,17.9-10.3-43.4-40.9-78-90.9-100.8-147ZM81.4,472c1.3-20.4,4.1-40.4,8.3-59.9-2.8,1.6-5.5,3.2-8.2,4.9-21.9,13.8-40.4,29.7-57.2,46.7-8.6,8.7-16.6,17.7-24.2,26.9,0,3.1-.1,6.2-.1,9.3,0,17.3.9,34.3,2.6,51.1,12.7-16.8,26.6-33.2,42.5-48.6,11.1-10.8,23-21,36.2-30.4h0ZM91.5,596c-5.1-21.5-8.4-43.7-10-66.3-9.2,7.4-17.7,15.2-25.7,23.3-16.8,16.9-31.3,34.8-44.4,53.3,4.6,21.1,10.5,41.8,17.6,61.8,11.7-17.1,24.7-33.8,39.6-49.8,7.2-7.7,14.8-15.2,22.9-22.3Z"/>
</svg>